# Blender 4.1.1
# www.blender.org
o Icosphere
v 0.239985 0.700974 -0.597975
v 1.495926 1.001096 0.419560
v -0.048414 1.030960 0.906599
v -1.164915 1.316552 -0.738382
v -0.060998 1.378250 -1.959351
v 1.395985 1.296260 -1.678195
v 1.014959 2.690469 1.290761
v -1.339369 2.687999 0.541848
v -1.322312 2.673935 -1.951481
v 0.886712 2.623305 -2.503753
v 2.154794 2.770935 -0.481561
v 0.521238 4.211810 -0.693692
v 0.082939 0.722839 0.177062
v 0.839688 0.693072 -0.060417
v 0.723715 0.891910 0.880717
v 1.644279 1.049056 -0.631587
v 0.798028 0.857739 -1.095696
v -0.383473 0.876066 -0.638560
v -0.794800 1.155035 0.122188
v 0.063489 0.904699 -1.301060
v -0.683357 1.251654 -1.418130
v 0.670960 1.273362 -1.960858
v 2.104180 1.681536 0.121307
v 2.049126 1.846325 -1.427847
v 0.460277 1.700634 1.424152
v 1.469356 1.735293 1.065243
v -1.581634 1.889622 -0.293738
v -0.739408 1.738609 1.041209
v -0.721606 1.932996 -2.208384
v -1.602108 1.884872 -1.389013
v 1.285416 1.919329 -2.327296
v 0.386249 1.946652 -2.459078
v 1.757368 2.911709 0.684466
v -0.082971 2.818983 1.294123
v -1.615451 2.825543 -0.900726
v -0.058492 2.770168 -2.391426
v 1.616390 2.914207 -1.905096
v 0.857407 3.698735 0.595478
v 1.457522 3.853705 -0.577601
v -0.645353 3.881923 0.038548
v -0.511263 3.656689 -1.461447
v 0.790120 3.615516 -1.813219
vn -0.0325 -0.9992 0.0216
vn 0.4146 -0.9098 0.0170
vn -0.2686 -0.9629 -0.0273
vn -0.2516 -0.9447 -0.2106
vn 0.0176 -0.9592 -0.2823
vn 0.7600 -0.6453 0.0778
vn -0.0758 -0.5730 0.8160
vn -0.7211 -0.6677 0.1848
vn -0.3731 -0.7115 -0.5954
vn 0.2893 -0.6655 -0.6881
vn 0.7372 -0.4309 0.5204
vn -0.2856 -0.4407 0.8510
vn -0.8021 -0.5969 0.0176
vn -0.1748 -0.5689 -0.8036
vn 0.6418 -0.4957 -0.5852
vn 0.4181 0.5591 0.7160
vn -0.4678 0.5601 0.6837
vn -0.6646 0.6907 -0.2851
vn -0.0089 0.5706 -0.8212
vn 0.8222 0.5064 -0.2600
vn 0.3717 0.8535 -0.3653
vn 0.5537 0.7095 -0.4359
vn 0.3863 0.5519 -0.7390
vn -0.1042 0.8672 -0.4869
vn -0.1741 0.6690 -0.7225
vn -0.3010 0.6128 -0.7307
vn -0.3655 0.9151 -0.1701
vn -0.6462 0.7441 -0.1695
vn -0.8054 0.5554 0.2071
vn -0.0262 0.9264 0.3756
vn -0.1645 0.7153 0.6792
vn 0.0696 0.5737 0.8161
vn 0.3125 0.9078 0.2798
vn 0.5832 0.7113 0.3923
vn 0.8131 0.5424 0.2116
vn 0.9182 0.2271 -0.3244
vn 0.7629 0.0204 -0.6461
vn 0.5947 0.1383 -0.7920
vn -0.1150 0.0195 -0.9932
vn -0.2201 -0.0388 -0.9747
vn -0.3321 0.0572 -0.9415
vn -0.9494 0.1341 -0.2842
vn -0.9995 -0.0239 0.0188
vn -0.9764 0.0916 0.1956
vn -0.5191 0.1172 0.8466
vn -0.3049 -0.0375 0.9516
vn 0.0175 0.1239 0.9921
vn 0.6101 0.1048 0.7853
vn 0.8290 -0.0221 0.5588
vn 0.9436 0.1257 0.3064
vn 0.1380 -0.1665 -0.9763
vn 0.1031 -0.5631 -0.8199
vn -0.0900 -0.6167 -0.7820
vn -0.6463 -0.2775 -0.7108
vn -0.4827 -0.6747 -0.5584
vn -0.5458 -0.7775 -0.3124
vn -0.8289 -0.2645 0.4930
vn -0.7296 -0.5565 0.3974
vn -0.5912 -0.6643 0.4574
vn 0.3364 -0.0619 0.9397
vn 0.3118 -0.4579 0.8325
vn 0.4792 -0.5698 0.6676
vn 0.9966 -0.0700 -0.0429
vn 0.8514 -0.5175 -0.0853
vn 0.6791 -0.6619 -0.3174
vn 0.2022 -0.8708 -0.4480
vn 0.0657 -0.8956 -0.4399
vn -0.1182 -0.8166 -0.5650
vn -0.2907 -0.8019 -0.5219
vn -0.3666 -0.8855 -0.2856
vn -0.4534 -0.8586 -0.2392
vn -0.4953 -0.8673 0.0502
vn -0.4444 -0.8916 0.0867
vn -0.4380 -0.8537 0.2817
vn 0.3616 -0.8845 -0.2947
vn 0.3011 -0.9398 -0.1616
vn 0.1313 -0.9782 -0.1609
vn -0.1536 -0.9199 0.3609
vn 0.0274 -0.9773 0.2099
vn 0.2700 -0.9348 0.2308
vt 0.181819 0.000000
vt 0.227273 0.078731
vt 0.136365 0.078731
vt 0.272728 0.157461
vt 0.318182 0.078731
vt 0.363637 0.157461
vt 0.909091 0.000000
vt 0.954545 0.078731
vt 0.863636 0.078731
vt 0.727273 0.000000
vt 0.772727 0.078731
vt 0.681818 0.078731
vt 0.545455 0.000000
vt 0.590909 0.078731
vt 0.500000 0.078731
vt 0.318182 0.236191
vt 0.090910 0.157461
vt 0.181819 0.157461
vt 0.136365 0.236191
vt 0.818182 0.157461
vt 0.909091 0.157461
vt 0.863636 0.236191
vt 0.636364 0.157461
vt 0.727273 0.157461
vt 0.681818 0.236191
vt 0.454546 0.157461
vt 0.545455 0.157461
vt 0.500000 0.236191
vt 0.227273 0.236191
vt 0.045455 0.236191
vt 0.772727 0.236191
vt 0.590909 0.236191
vt 0.409092 0.236191
vt 0.181819 0.314921
vt 0.272728 0.314921
vt 0.227273 0.393651
vt 0.000000 0.314921
vt 0.090910 0.314921
vt 0.045455 0.393651
vt 0.727273 0.314921
vt 0.818182 0.314921
vt 0.772727 0.393651
vt 0.545455 0.314921
vt 0.636364 0.314921
vt 0.590909 0.393651
vt 0.363637 0.314921
vt 0.454546 0.314921
vt 0.409092 0.393651
vt 0.500000 0.393651
vt 0.454546 0.472382
vt 0.681818 0.393651
vt 0.636364 0.472382
vt 0.863636 0.393651
vt 0.818182 0.472382
vt 0.909091 0.314921
vt 0.136365 0.393651
vt 0.090910 0.472382
vt 0.318182 0.393651
vt 0.272728 0.472382
vt 0.954545 0.236191
vt 1.000000 0.157461
vt 0.409092 0.078731
vt 0.363637 0.000000
s 0
f 1/1/1 14/2/1 13/3/1
f 2/4/2 14/5/2 16/6/2
f 1/7/3 13/8/3 18/9/3
f 1/10/4 18/11/4 20/12/4
f 1/13/5 20/14/5 17/15/5
f 2/4/6 16/6/6 23/16/6
f 3/17/7 15/18/7 25/19/7
f 4/20/8 19/21/8 27/22/8
f 5/23/9 21/24/9 29/25/9
f 6/26/10 22/27/10 31/28/10
f 2/4/11 23/16/11 26/29/11
f 3/17/12 25/19/12 28/30/12
f 4/20/13 27/22/13 30/31/13
f 5/23/14 29/25/14 32/32/14
f 6/26/15 31/28/15 24/33/15
f 7/34/16 33/35/16 38/36/16
f 8/37/17 34/38/17 40/39/17
f 9/40/18 35/41/18 41/42/18
f 10/43/19 36/44/19 42/45/19
f 11/46/20 37/47/20 39/48/20
f 39/48/21 42/49/21 12/50/21
f 39/48/22 37/47/22 42/49/22
f 37/47/23 10/43/23 42/49/23
f 42/45/24 41/51/24 12/52/24
f 42/45/25 36/44/25 41/51/25
f 36/44/26 9/40/26 41/51/26
f 41/42/27 40/53/27 12/54/27
f 41/42/28 35/41/28 40/53/28
f 35/41/29 8/55/29 40/53/29
f 40/39/30 38/56/30 12/57/30
f 40/39/31 34/38/31 38/56/31
f 34/38/32 7/34/32 38/56/32
f 38/36/33 39/58/33 12/59/33
f 38/36/34 33/35/34 39/58/34
f 33/35/35 11/46/35 39/58/35
f 24/33/36 37/47/36 11/46/36
f 24/33/37 31/28/37 37/47/37
f 31/28/38 10/43/38 37/47/38
f 32/32/39 36/44/39 10/43/39
f 32/32/40 29/25/40 36/44/40
f 29/25/41 9/40/41 36/44/41
f 30/31/42 35/41/42 9/40/42
f 30/31/43 27/22/43 35/41/43
f 27/22/44 8/55/44 35/41/44
f 28/30/45 34/38/45 8/37/45
f 28/30/46 25/19/46 34/38/46
f 25/19/47 7/34/47 34/38/47
f 26/29/48 33/35/48 7/34/48
f 26/29/49 23/16/49 33/35/49
f 23/16/50 11/46/50 33/35/50
f 31/28/51 32/32/51 10/43/51
f 31/28/52 22/27/52 32/32/52
f 22/27/53 5/23/53 32/32/53
f 29/25/54 30/31/54 9/40/54
f 29/25/55 21/24/55 30/31/55
f 21/24/56 4/20/56 30/31/56
f 27/22/57 28/60/57 8/55/57
f 27/22/58 19/21/58 28/60/58
f 19/21/59 3/61/59 28/60/59
f 25/19/60 26/29/60 7/34/60
f 25/19/61 15/18/61 26/29/61
f 15/18/62 2/4/62 26/29/62
f 23/16/63 24/33/63 11/46/63
f 23/16/64 16/6/64 24/33/64
f 16/6/65 6/26/65 24/33/65
f 17/15/66 22/27/66 6/26/66
f 17/15/67 20/14/67 22/27/67
f 20/14/68 5/23/68 22/27/68
f 20/12/69 21/24/69 5/23/69
f 20/12/70 18/11/70 21/24/70
f 18/11/71 4/20/71 21/24/71
f 18/9/72 19/21/72 4/20/72
f 18/9/73 13/8/73 19/21/73
f 13/8/74 3/61/74 19/21/74
f 16/6/75 17/62/75 6/26/75
f 16/6/76 14/5/76 17/62/76
f 14/5/77 1/63/77 17/62/77
f 13/3/78 15/18/78 3/17/78
f 13/3/79 14/2/79 15/18/79
f 14/2/80 2/4/80 15/18/80
