# Blender 4.1.1
# www.blender.org
mtllib bratBox.mtl
o Cube
v 6.296506 0.876373 -5.455654
v 6.296506 1.123627 -5.455654
v 6.330781 0.876373 5.415843
v 6.330781 1.123627 5.415843
v -6.330781 0.876373 -5.415843
v -6.330781 1.123627 -5.415843
v -6.296506 0.876373 5.455654
v -6.296506 1.123627 5.455654
vn 0.0195 -0.9996 -0.0228
vn 0.0195 0.9995 -0.0228
vn 0.0196 -0.9996 0.0227
vn 0.0196 0.9995 0.0227
vn -0.0196 -0.9996 -0.0227
vn -0.0196 0.9995 -0.0227
vn -0.0195 -0.9996 0.0228
vn -0.0195 0.9995 0.0228
vt 0.875000 0.500000
vt 0.625000 0.750000
vt 0.625000 0.500000
vt 0.375000 1.000000
vt 0.375000 0.750000
vt 0.625000 0.000000
vt 0.375000 0.250000
vt 0.375000 0.000000
vt 0.375000 0.500000
vt 0.125000 0.750000
vt 0.125000 0.500000
vt 0.625000 0.250000
vt 0.875000 0.750000
vt 0.625000 1.000000
s 1
usemtl Material
f 5/1/5 1/3/1 3/2/3
f 3/2/3 4/5/4 8/4/8
f 7/6/7 8/8/8 6/7/6
f 2/9/2 6/11/6 8/10/8
f 1/3/1 2/9/2 4/5/4
f 5/12/5 6/7/6 2/9/2
f 5/1/5 3/2/3 7/13/7
f 3/2/3 8/4/8 7/14/7
f 7/6/7 6/7/6 5/12/5
f 2/9/2 8/10/8 4/5/4
f 1/3/1 4/5/4 3/2/3
f 5/12/5 2/9/2 1/3/1
o Cube.001
v 6.313675 7.876373 -5.435775
v 6.313675 8.123627 -5.435775
v 6.313675 7.876373 5.435775
v 6.313675 8.123627 5.435775
v -6.313675 7.876373 -5.435775
v -6.313675 8.123627 -5.435775
v -6.313675 7.876373 5.435775
v -6.313675 8.123627 5.435775
vn 0.0196 -0.9996 -0.0227
vn 0.0196 0.9995 -0.0227
vn 0.0196 -0.9996 0.0227
vn 0.0196 0.9995 0.0227
vn -0.0196 -0.9996 -0.0227
vn -0.0196 0.9995 -0.0227
vn -0.0196 -0.9996 0.0227
vn -0.0196 0.9995 0.0227
vt 0.875000 0.500000
vt 0.625000 0.750000
vt 0.625000 0.500000
vt 0.375000 1.000000
vt 0.375000 0.750000
vt 0.625000 0.000000
vt 0.375000 0.250000
vt 0.375000 0.000000
vt 0.375000 0.500000
vt 0.125000 0.750000
vt 0.125000 0.500000
vt 0.625000 0.250000
vt 0.875000 0.750000
vt 0.625000 1.000000
s 1
usemtl Material.001
f 13/15/13 9/17/9 11/16/11
f 11/16/11 12/19/12 16/18/16
f 15/20/15 16/22/16 14/21/14
f 10/23/10 14/25/14 16/24/16
f 9/17/9 10/23/10 12/19/12
f 13/26/13 14/21/14 10/23/10
f 13/15/13 11/16/11 15/27/15
f 11/16/11 16/18/16 15/28/15
f 15/20/15 14/21/14 13/26/13
f 10/23/10 16/24/16 12/19/12
f 9/17/9 12/19/12 11/16/11
f 13/26/13 10/23/10 9/17/9
o Cube.002
v 6.677417 10.161697 5.446579
v 6.677417 10.161697 5.693833
v 6.677417 -0.709853 5.446579
v 6.677417 -0.709853 5.693833
v -5.949933 10.161697 5.446579
v -5.949933 10.161697 5.693833
v -5.949933 -0.709853 5.446579
v -5.949933 -0.709853 5.693833
vn 0.0196 0.0227 -0.9995
vn 0.0196 0.0227 0.9995
vn 0.0196 -0.0227 -0.9996
vn 0.0196 -0.0227 0.9995
vn -0.0196 0.0227 -0.9996
vn -0.0196 0.0227 0.9995
vn -0.0196 -0.0227 -0.9995
vn -0.0196 -0.0227 0.9995
vt 0.875000 0.500000
vt 0.625000 0.750000
vt 0.625000 0.500000
vt 0.375000 1.000000
vt 0.375000 0.750000
vt 0.625000 0.000000
vt 0.375000 0.250000
vt 0.375000 0.000000
vt 0.375000 0.500000
vt 0.125000 0.750000
vt 0.125000 0.500000
vt 0.625000 0.250000
vt 0.875000 0.750000
vt 0.625000 1.000000
s 1
usemtl Material.002
f 21/29/21 17/31/17 19/30/19
f 19/30/19 20/33/20 24/32/24
f 23/34/23 24/36/24 22/35/22
f 18/37/18 22/39/22 24/38/24
f 17/31/17 18/37/18 20/33/20
f 21/40/21 22/35/22 18/37/18
f 21/29/21 19/30/19 23/41/23
f 19/30/19 24/32/24 23/42/23
f 23/34/23 22/35/22 21/40/21
f 18/37/18 24/38/24 20/33/20
f 17/31/17 20/33/20 19/30/19
f 21/40/21 18/37/18 17/31/17
o Cube.003
v 6.494143 11.554612 -5.814854
v 6.494143 11.554612 -5.567600
v 6.494143 0.683063 -5.814854
v 6.494143 0.683063 -5.567600
v -6.133207 11.554612 -5.814854
v -6.133207 11.554612 -5.567600
v -6.133207 0.683063 -5.814854
v -6.133207 0.683063 -5.567600
vn 0.0196 0.0227 -0.9995
vn 0.0196 0.0227 0.9995
vn 0.0196 -0.0227 -0.9996
vn 0.0196 -0.0227 0.9995
vn -0.0196 0.0227 -0.9996
vn -0.0196 0.0227 0.9995
vn -0.0196 -0.0227 -0.9995
vn -0.0196 -0.0227 0.9995
vt 0.875000 0.500000
vt 0.625000 0.750000
vt 0.625000 0.500000
vt 0.375000 1.000000
vt 0.375000 0.750000
vt 0.625000 0.000000
vt 0.375000 0.250000
vt 0.375000 0.000000
vt 0.375000 0.500000
vt 0.125000 0.750000
vt 0.125000 0.500000
vt 0.625000 0.250000
vt 0.875000 0.750000
vt 0.625000 1.000000
s 1
usemtl Material.003
f 29/43/29 25/45/25 27/44/27
f 27/44/27 28/47/28 32/46/32
f 31/48/31 32/50/32 30/49/30
f 26/51/26 30/53/30 32/52/32
f 25/45/25 26/51/26 28/47/28
f 29/54/29 30/49/30 26/51/26
f 29/43/29 27/44/27 31/55/31
f 27/44/27 32/46/32 31/56/31
f 31/48/31 30/49/30 29/54/29
f 26/51/26 32/52/32 28/47/28
f 25/45/25 28/47/28 27/44/27
f 29/54/29 26/51/26 25/45/25
o Cube.004
v -6.373876 11.196033 -6.205977
v -6.126622 11.196033 -6.205977
v -6.373876 0.324483 -6.205977
v -6.126623 0.324483 -6.205977
v -6.373875 11.196033 6.421372
v -6.126622 11.196033 6.421372
v -6.373876 0.324483 6.421372
v -6.126622 0.324483 6.421372
vn -0.9996 0.0227 -0.0196
vn 0.9995 0.0227 -0.0196
vn -0.9996 -0.0227 -0.0196
vn 0.9995 -0.0227 -0.0196
vn -0.9996 0.0227 0.0196
vn 0.9995 0.0227 0.0196
vn -0.9996 -0.0227 0.0196
vn 0.9995 -0.0227 0.0196
vt 0.875000 0.500000
vt 0.625000 0.750000
vt 0.625000 0.500000
vt 0.375000 1.000000
vt 0.375000 0.750000
vt 0.625000 0.000000
vt 0.375000 0.250000
vt 0.375000 0.000000
vt 0.375000 0.500000
vt 0.125000 0.750000
vt 0.125000 0.500000
vt 0.625000 0.250000
vt 0.875000 0.750000
vt 0.625000 1.000000
s 1
usemtl Material.004
f 37/57/37 33/59/33 35/58/35
f 35/58/35 36/61/36 40/60/40
f 39/62/39 40/64/40 38/63/38
f 34/65/34 38/67/38 40/66/40
f 33/59/33 34/65/34 36/61/36
f 37/68/37 38/63/38 34/65/34
f 37/57/37 35/58/35 39/69/39
f 35/58/35 40/60/40 39/70/39
f 39/62/39 38/63/38 37/68/37
f 34/65/34 40/66/40 36/61/36
f 33/59/33 36/61/36 35/58/35
f 37/68/37 34/65/34 33/59/33
o Cube.005
v 6.254052 11.643736 -6.493938
v 6.501306 11.643736 -6.493938
v 6.254052 0.772186 -6.493938
v 6.501305 0.772186 -6.493938
v 6.254053 11.643736 6.133411
v 6.501306 11.643736 6.133411
v 6.254052 0.772186 6.133411
v 6.501306 0.772186 6.133411
vn -0.9996 0.0227 -0.0196
vn 0.9995 0.0227 -0.0196
vn -0.9996 -0.0227 -0.0196
vn 0.9995 -0.0227 -0.0196
vn -0.9996 0.0227 0.0196
vn 0.9995 0.0227 0.0196
vn -0.9996 -0.0227 0.0196
vn 0.9995 -0.0227 0.0196
vt 0.875000 0.500000
vt 0.625000 0.750000
vt 0.625000 0.500000
vt 0.375000 1.000000
vt 0.375000 0.750000
vt 0.625000 0.000000
vt 0.375000 0.250000
vt 0.375000 0.000000
vt 0.375000 0.500000
vt 0.125000 0.750000
vt 0.125000 0.500000
vt 0.625000 0.250000
vt 0.875000 0.750000
vt 0.625000 1.000000
s 1
usemtl Material.005
f 45/71/45 41/73/41 43/72/43
f 43/72/43 44/75/44 48/74/48
f 47/76/47 48/78/48 46/77/46
f 42/79/42 46/81/46 48/80/48
f 41/73/41 42/79/42 44/75/44
f 45/82/45 46/77/46 42/79/42
f 45/71/45 43/72/43 47/83/47
f 43/72/43 48/74/48 47/84/47
f 47/76/47 46/77/46 45/82/45
f 42/79/42 48/80/48 44/75/44
f 41/73/41 44/75/44 43/72/43
f 45/82/45 42/79/42 41/73/41
